<?xml version="1.0" encoding="utf-8"?>
<!-- Generator: Adobe Illustrator 24.0.2, SVG Export Plug-In . SVG Version: 6.00 Build 0)  -->
<svg version="1.1" id="Ebene_1" xmlns="http://www.w3.org/2000/svg" xmlns:xlink="http://www.w3.org/1999/xlink" x="0px" y="0px"
	 viewBox="0 0 37.8 37.8" style="enable-background:new 0 0 37.8 37.8;" xml:space="preserve">
<style type="text/css">
	.st0{fill:#FFFFFF;}
</style>
<title>closebtn-whiteborder</title>
<g id="Ebene_2_1_">
	<g id="Ebene_1-2">
		<polygon class="st0" points="18.9,25.3 7.8,36.4 1.4,30 12.5,18.9 1.4,7.8 7.8,1.4 18.9,12.5 30,1.4 36.4,7.8 25.3,18.9 36.4,30 
			30,36.4 		"/>
		<path class="st0" d="M30,2.8l5,5l-9.7,9.7l-1.4,1.4l1.4,1.4L35,30l-5,5l-9.7-9.7l-1.4-1.4l-1.4,1.4L7.8,35l-5-5l9.7-9.7l1.4-1.4
			l-1.4-1.4L2.8,7.8l5-4.9l9.7,9.7l1.4,1.4l1.4-1.4L30,2.8 M30,0L18.9,11.1L7.8,0L0,7.8l11.1,11.1L0,30l7.8,7.8l11.1-11.1L30,37.8
			l7.8-7.8L26.7,18.9L37.8,7.8L30,0z"/>
	</g>
</g>
</svg>
