<?xml version="1.0" encoding="utf-8"?>
<!-- Generator: Adobe Illustrator 24.1.1, SVG Export Plug-In . SVG Version: 6.00 Build 0)  -->
<svg version="1.1" id="Ebene_1" xmlns="http://www.w3.org/2000/svg" xmlns:xlink="http://www.w3.org/1999/xlink" x="0px" y="0px"
	 viewBox="0 0 989.8 155.5" style="enable-background:new 0 0 989.8 155.5;" xml:space="preserve">
<g>
	<path d="M113.5,148.1c-15.4,5.6-23.9,7.4-33.5,7.4c-25.9,0-45.3-10.3-57.5-22.3C8,118.7,0,98.4,0,79c0-21.2,9.1-41.3,22.5-54.9
		c13.2-13.4,33-23.2,56.2-23.2c7.1,0,18.7,1.1,34.8,7.6v46.2C101,39.3,86.3,38.4,79.8,38.4c-11.2,0-19.6,3.3-26.8,9.8
		c-9.1,8.5-12.9,20.1-12.9,30.6c0,10.3,4.2,21.6,12,29c6.5,6,16.7,10.3,27.7,10.3c5.8,0,20.1-0.7,33.7-15.6V148.1z"/>
	<path d="M272.1,133.4c-15.2,14.5-36.6,22.1-58.7,22.1s-43.5-7.6-58.7-22.1c-15.8-15.2-23.4-35.9-23.4-55.5
		c0-19.9,7.6-40.8,23.4-55.8C170,7.6,191.4,0,213.4,0s43.5,7.6,58.7,22.1C287.9,37,295.5,58,295.5,77.8
		C295.5,97.5,287.9,118.2,272.1,133.4z M183.3,49.3c-8,7.8-11.8,18.7-11.8,29.2c0,13.2,6.2,22.3,11.8,27.7
		c7.1,6.9,17.2,11.8,30.1,11.8c13.2,0,23-4.7,29.9-11.6c6.9-6.9,12-17.2,12-28.5c0-11.6-5.1-21.9-12-28.5
		c-8.3-7.8-19.6-11.8-29.9-11.8C202.7,37.5,191.4,41.3,183.3,49.3z"/>
	<path d="M380.3,3.3c11.2,0,25.4,1.8,36.4,13.2c8.5,8.7,12.7,21.6,12.7,33.5c0,12.7-4.5,23.9-11.8,31c-5.8,5.6-13.6,8.9-20.5,10.3
		l46.6,60.9h-48l-37-57.1v57.1h-38.6V3.3H380.3z M358.6,70h7.4c5.8,0,14.1-1.6,18.7-6c2.9-2.9,4.9-7.8,4.9-12.5
		c0-4.5-1.8-9.4-5.1-12.5c-3.6-3.6-10-5.8-18.5-5.8h-7.4V70z"/>
	<path d="M520.1,3.3c11.2,0,25.4,1.8,36.4,13.2c8.5,8.7,12.7,21.6,12.7,33.5c0,12.7-4.5,23.9-11.8,31c-5.8,5.6-13.6,8.9-20.5,10.3
		l46.6,60.9h-48l-37-57.1v57.1h-38.6V3.3H520.1z M498.5,70h7.4c5.8,0,14.1-1.6,18.7-6c2.9-2.9,4.9-7.8,4.9-12.5
		c0-4.5-1.8-9.4-5.1-12.5c-3.6-3.6-10-5.8-18.5-5.8h-7.4V70z"/>
	<path d="M684.3,36.1h-45.9v24.8h43.5v32.8h-43.5v25.6h45.9v32.8h-84.5V3.3h84.5V36.1z"/>
	<path d="M769,3.3c11.2,0,25.4,1.8,36.4,13.2c8.5,8.7,12.7,21.6,12.7,33.5c0,12.7-4.5,23.9-11.8,31c-5.8,5.6-13.6,8.9-20.5,10.3
		l46.6,60.9h-48l-37-57.1v57.1h-38.6V3.3H769z M747.4,70h7.4c5.8,0,14.1-1.6,18.7-6c2.9-2.9,4.9-7.8,4.9-12.5
		c0-4.5-1.8-9.4-5.1-12.5c-3.6-3.6-10-5.8-18.5-5.8h-7.4V70z"/>
	<path d="M939.4,127.1h-54l-10,25h-40.8L891.7,3.3h42.2l56,148.8h-41.3L939.4,127.1z M929.2,97.7l-16.7-48.2l-16.3,48.2H929.2z"/>
</g>
</svg>
