<svg xmlns="http://www.w3.org/2000/svg" viewBox="0 0 388.77 388.76"><defs><style>.cls-1{font-size:25.5px;font-family:FuturaPT-Bold, Futura PT;font-weight:700;}</style></defs><g id="Ebene_2" data-name="Ebene 2"><g id="Ebene_1-2" data-name="Ebene 1"><text class="cls-1" transform="translate(327.11 230.97) rotate(108.54)">P</text><text class="cls-1" transform="translate(320.43 249.64) rotate(116.21)">E</text><text class="cls-1" transform="matrix(-0.56, 0.83, -0.83, -0.56, 312.76, 264.8)">R</text><text class="cls-1" transform="translate(300.96 281.56) rotate(132.36)">S</text><text class="cls-1" transform="matrix(-0.78, 0.62, -0.62, -0.78, 288.06, 295.55)">O</text><text class="cls-1" transform="translate(268.07 310.88) rotate(151.94)">N</text><text class="cls-1" transform="translate(245.86 322.18) rotate(161.78)">A</text><text class="cls-1" transform="translate(224.24 328.73) rotate(169.93)">L</text><text class="cls-1" transform="matrix(-1, 0.08, -0.08, -1, 207.75, 331.27)"> </text><text class="cls-1" transform="translate(197.2 332.08) rotate(-177.84)">B</text><text class="cls-1" transform="matrix(-0.98, -0.18, 0.18, -0.98, 176.98, 330.99)">R</text><text class="cls-1" transform="translate(156.92 326.95) rotate(-160.51)">A</text><text class="cls-1" transform="translate(135.78 319.18) rotate(-150.62)">N</text><text class="cls-1" transform="matrix(-0.77, -0.63, 0.63, -0.77, 114.33, 306.53)">D</text><text class="cls-1" transform="translate(97.46 291.97) rotate(-133.48)">I</text><text class="cls-1" transform="translate(88.74 282.95) rotate(-125.67)">N</text><text class="cls-1" transform="translate(74.56 262.47) rotate(-115.53)">G</text><text class="cls-1" transform="translate(64.73 240.27) rotate(-107.93)">.</text><text class="cls-1" transform="translate(61.1 228.36) rotate(-102.69)">I</text><text class="cls-1" transform="translate(58.23 216.16) rotate(-94.82)">N</text><text class="cls-1" transform="matrix(0.08, -1, 1, 0.08, 56.73, 191.25)">S</text><text class="cls-1" transform="translate(58.58 172.2) rotate(-78.17)">T</text><text class="cls-1" transform="translate(61.86 156.76) rotate(-70.45)">A</text><text class="cls-1" transform="matrix(0.49, -0.87, 0.87, 0.49, 69.47, 136.08)">G</text><text class="cls-1" transform="matrix(0.62, -0.78, 0.78, 0.62, 81.66, 115.23)">R</text><text class="cls-1" transform="matrix(0.74, -0.68, 0.68, 0.74, 94.59, 99.37)">A</text><text class="cls-1" transform="translate(111.28 84.26) rotate(-32.18)">M</text><text class="cls-1" transform="matrix(0.91, -0.41, 0.41, 0.91, 135.3, 70.22)"> </text><text class="cls-1" transform="translate(144.98 65.88) rotate(-18.05)">S</text><text class="cls-1" transform="translate(163.27 60.32) rotate(-10.61)">T</text><text class="cls-1" transform="translate(179.58 57.44) rotate(-2.83)">R</text><text class="cls-1" transform="matrix(0.99, 0.11, -0.11, 0.99, 200.01, 56.7)">A</text><text class="cls-1" transform="matrix(0.97, 0.24, -0.24, 0.97, 221.72, 59.52)">T</text><text class="cls-1" transform="translate(237.76 63.79) rotate(20.9)">E</text><text class="cls-1" transform="translate(253.58 69.89) rotate(29.5)">G</text><text class="cls-1" transform="matrix(0.8, 0.6, -0.6, 0.8, 274.35, 82.45)">I</text><text class="cls-1" transform="matrix(0.73, 0.69, -0.69, 0.73, 284.32, 90.19)">E</text><text class="cls-1" transform="translate(296.5 102.25) rotate(49.6)">.</text></g></g></svg>