<svg xmlns="http://www.w3.org/2000/svg" viewBox="0 0 199.93 199.93"><title>bbpl-stamp-rotated</title><g id="Ebene_2" data-name="Ebene 2"><g id="Ebene_1-2" data-name="Ebene 1"><path d="M158.64,160.54a2.81,2.81,0,0,1-1.57.85,1.88,1.88,0,0,1-1.56-.66,1.72,1.72,0,0,1-.48-1.57,1.88,1.88,0,0,1-2.33-.38,2.08,2.08,0,0,1-.57-1.7,2.8,2.8,0,0,1,1-1.6l1.35-1.29,5.18,5.42Zm-4.26-5.2-.69.65a2.12,2.12,0,0,0-.73,1.14,1.28,1.28,0,0,0,.36,1.09,1.2,1.2,0,0,0,1.22.35,2.6,2.6,0,0,0,1.07-.71l.62-.59Zm2.36,2.47-.45.43a1.26,1.26,0,0,0-.21,1.92,1.29,1.29,0,0,0,1.92-.09l.47-.45Z"/><path d="M149.26,168.4a3.32,3.32,0,0,1-1.73.71,2.08,2.08,0,0,1-1.28-3.66l-3.88-1.35.82-.59,3.76,1.36.17-.12-1.89-2.68.68-.48,4.33,6.11Zm-1.71-3.05-.43.31c-.84.59-1.06,1.35-.55,2.07a1.15,1.15,0,0,0,1.12.55,2.12,2.12,0,0,0,1-.45l.41-.29Z"/><path d="M136.24,175.24l2.72-1.39-1-2-2.64,1.35-.36-.7,2.64-1.35-1.33-2.59L133.55,170l-.36-.7,3.46-1.77,3.41,6.67-3.46,1.77Z"/><path d="M123.62,175.28l3-1,.18-2.28.87-.3-.78,8.54-5.67-6.38.87-.29Zm.56.64,2.14,2.44.27-3.25Z"/><path d="M114.91,179.67l-2.61,3.69-1.1.19,2.87-4-4.23-3.34L111,176l3.59,2.88.18-.25-.54-3.17.82-.14,1.25,7.38-.82.14Z"/><path d="M93,183.17l.53-6.68.83.06-.53,6.69,1.81.14-.06.78-4.45-.35.06-.78Z"/><path d="M83.48,179.53l-3.74-.87-.69,3-.81-.18,1.7-7.3.81.19-.83,3.57,3.74.87.83-3.57.81.19-1.7,7.3-.81-.19Z"/><path d="M67,176.66l2.83,1.14.83-2.06-2.75-1.11.29-.73L70.9,175l1.09-2.7-2.83-1.14.29-.73,3.6,1.45-2.79,7-3.61-1.45Z"/><path d="M50.18,166.06a1.87,1.87,0,0,0,0,.71,1.42,1.42,0,0,0,.53.71,1.14,1.14,0,0,0,1.7-.2.78.78,0,0,0,.16-.69,2.52,2.52,0,0,0-.36-.84l-.4-.68a3.66,3.66,0,0,1-.52-1.25,1.82,1.82,0,0,1,.37-1.42,2.4,2.4,0,0,1,4.23,1,2.67,2.67,0,0,1-.22,1.49l-.78-.3a1.83,1.83,0,0,0,.2-1,1.48,1.48,0,0,0-.63-1,1.42,1.42,0,0,0-2.09.32,1.1,1.1,0,0,0-.22.92,3.55,3.55,0,0,0,.42.95l.36.65a3.25,3.25,0,0,1,.45,1.09,1.54,1.54,0,0,1-.3,1.29,1.94,1.94,0,0,1-2.84.33,2,2,0,0,1-.77-1,2.16,2.16,0,0,1-.1-1.1Z"/><path d="M42.11,160.08l4.63-4.86.6.58-4.63,4.85L44,161.91l-.54.56-3.24-3.08.55-.57Z"/><path d="M37.16,147.63l2,2.5,2.22-.6.57.72-8.3,2.16,4.08-7.5.57.72Zm-.42.74-1.57,2.85,3.14-.86Z"/><path d="M27.77,141.73l5.79-3.38.41.72-5.79,3.38L29.1,144l-.68.39-2.25-3.86.68-.39Z"/><path d="M26.78,131.28a1.82,1.82,0,0,0,1.41-2.53,1.83,1.83,0,0,0-2.77-.87l-4.27,1.7-.31-.77L25.32,127a3,3,0,0,1,1.85-.23,2.68,2.68,0,0,1,1.75,1.66,2.65,2.65,0,0,1-.13,2.41,2.89,2.89,0,0,1-1.5,1.11l-4.47,1.78-.31-.77Z"/><path d="M19.1,117.17a1.71,1.71,0,0,0-.45.56,1.32,1.32,0,0,0-.07.87,1.15,1.15,0,0,0,1.41,1,.76.76,0,0,0,.57-.42,2.48,2.48,0,0,0,.29-.87l.14-.77a3.85,3.85,0,0,1,.43-1.29,1.82,1.82,0,0,1,1.21-.82,2.24,2.24,0,0,1,2.77,1.79,2.22,2.22,0,0,1-.23,1.72,2.72,2.72,0,0,1-1.13,1l-.4-.74a1.74,1.74,0,0,0,.83-.65,1.44,1.44,0,0,0,.16-1.15,1.42,1.42,0,0,0-1.78-1.13,1.09,1.09,0,0,0-.77.56,3.23,3.23,0,0,0-.3,1l-.16.72a3,3,0,0,1-.38,1.12,1.55,1.55,0,0,1-1.07.77,1.94,1.94,0,0,1-2.36-1.61,2.13,2.13,0,0,1,.06-1.25,2.21,2.21,0,0,1,.65-.89Z"/><path d="M22.94,94.35a3.89,3.89,0,0,1,.58,2.28,3.87,3.87,0,1,1-3.7-4.06,3.77,3.77,0,0,1,2.64,1.17l1.18-1-.05,1.08Zm-1.12,0a3,3,0,0,0-2-.89,3.05,3.05,0,1,0,2.54,1.5l-1.95,1.72.05-1.08Z"/><path d="M21.9,84.53a2.17,2.17,0,0,0,1.91-.19,2.07,2.07,0,0,0,.68-1.11,2.12,2.12,0,0,0-.14-1.3,2.17,2.17,0,0,0-1.65-1l-4.48-1,.18-.81,4.7,1a3,3,0,0,1,1.65.85,2.89,2.89,0,0,1-.95,4.28,3,3,0,0,1-1.86.07l-4.7-1,.18-.81Z"/><path d="M24.2,72.81a3.89,3.89,0,1,1,5.07-2.11A3.82,3.82,0,0,1,24.2,72.81Zm.33-.78a3,3,0,1,0-1.69-4A3.06,3.06,0,0,0,24.53,72Z"/><path d="M44.59,46.88l-5.4-5.63,8.45.38-4-4.19.6-.58,5.42,5.65-8.45-.38,4,4.18Z"/><path d="M54.8,35.42,52.23,37.3l.52,2.23-.74.55-1.85-8.37,7.34,4.35-.74.54ZM54.08,35,51.29,33.3,52,36.47Z"/><path d="M62.36,26.48a3.68,3.68,0,0,0-1.19-.13,3.17,3.17,0,0,0-1.27.38A3.08,3.08,0,1,0,64,31.13a3.32,3.32,0,0,0,.45-1l.5.9a3.88,3.88,0,0,1-1.61,1.74A3.88,3.88,0,1,1,59.57,26a3.57,3.57,0,0,1,2.29-.43Z"/><path d="M67.83,25.49l3.56-1.44-1.14-2.82.77-.32,2.8,7-.77.31-1.37-3.39-3.56,1.43,1.37,3.4-.77.31-2.8-7,.77-.31Z"/><path d="M86.45,22.35,83.32,23l-.48,2.24-.9.18L83.81,17l4.81,7-.91.18Zm-.47-.7L84.17,19l-.68,3.18Z"/><path d="M92.21,16.17l.61,6.68,2.06-.19.07.78-2.88.27-.69-7.46Z"/><path d="M99.27,15.81l0,6.7h2.06v.78l-2.9,0,0-7.48Z"/><path d="M109.36,17.08l-3-.27L106.13,19l3,.25-.06.79-3-.26-.25,2.9,3,.26-.07.79-3.87-.34.64-7.46,3.87.33Z"/><path d="M112.66,24.25l1.61-7.64,4.45,7.2,1.2-5.68.81.17L119.11,26l-4.45-7.2-1.19,5.66Z"/><path d="M132.09,22.12a3.31,3.31,0,0,1,1.52,1.09,2.08,2.08,0,0,1-2.44,3l.9,4-.93-.39-.83-3.91-.2-.08-1.27,3-.77-.32L131,21.65Zm-1.69,3.05.49.21c1,.4,1.71.19,2.05-.62a1.17,1.17,0,0,0-.12-1.25,2.13,2.13,0,0,0-.91-.61l-.47-.2Z"/><path d="M142,27.88l-2.68-1.48-1.07,2,2.6,1.43-.38.69L137.88,29l-1.4,2.55,2.68,1.47-.38.69-3.41-1.87L139,25.32l3.4,1.87Z"/><path d="M147.45,35,150,36.81l-.11.15a4.11,4.11,0,0,1-2,1.49,3.34,3.34,0,0,1-3.05-.54,3.88,3.88,0,1,1,4.57-6.26,3.72,3.72,0,0,1,1.42,1.94,4.63,4.63,0,0,1,.18,1.23l-.83.09a4.24,4.24,0,0,0-.12-1,2.78,2.78,0,0,0-1.1-1.58,3.09,3.09,0,0,0-3.65,5,2.63,2.63,0,0,0,2.6.33,2.57,2.57,0,0,0,.87-.69L147,35.61Z"/><path d="M158.14,40.09,155.89,38l-1.51,1.64,2.19,2-.54.58-2.18-2-2,2.14,2.25,2.06-.53.58-2.86-2.63,5.07-5.51,2.86,2.63Z"/><path d="M162.46,43.45l-5,4.5,1.39,1.53-.58.53-1.95-2.15,5.56-5Z"/><path d="M160.54,52.68l6.35-4.54-1.58,8.31L170,53.07l.48.68-6.37,4.55L165.73,50,161,53.35Z"/><path d="M175.84,63.18l.62,1.4a4,4,0,0,1,.33,2.88,3.63,3.63,0,0,1-2.1,2.34,3.56,3.56,0,0,1-3.16,0,3.79,3.79,0,0,1-1.91-2.15L169,66.25Zm-5.78,3.51.3.66A3.17,3.17,0,0,0,171.85,69a2.84,2.84,0,0,0,2.49,0,2.88,2.88,0,0,0,1.42-4.09l-.3-.67Z"/><path d="M180.17,76.67l-.93-2.91-2.11.68.9,2.82-.75.24-.9-2.82-2.77.88.92,2.91-.75.24L172.6,75l7.14-2.28,1.18,3.71Z"/><path d="M182.34,82.15a3.2,3.2,0,0,1,0,1.86,2.09,2.09,0,0,1-3.87-.28l-2.79,3-.2-1,2.74-2.91,0-.2-3.21.67-.17-.82L182.1,81Zm-3.47.34L179,83c.21,1,.82,1.52,1.68,1.34a1.16,1.16,0,0,0,1-.81,2.05,2.05,0,0,0,0-1.1l-.1-.49Z"/><path d="M181,96.15l3.31,3.09,0,1.12-3.6-3.4-3.89,3.74,0-1.14,3.34-3.17-.22-.21-3.22.1,0-.83,7.49-.23,0,.83Z"/><path d="M179.54,105a2.14,2.14,0,0,0-1.86.44,2,2,0,0,0-.21,2.46,2.1,2.1,0,0,0,1.76.75l4.58.39-.07.83-4.8-.41a2.92,2.92,0,0,1-1.75-.62,2.63,2.63,0,0,1-.82-2.27,2.67,2.67,0,0,1,1.19-2.1,2.94,2.94,0,0,1,1.83-.32l4.8.42-.07.82Z"/><path d="M175.67,113.5l7.62,1.7L176,119.56l5.67,1.27-.18.81-7.64-1.71,7.24-4.36-5.64-1.26Z"/><path d="M177.47,129.28a1.72,1.72,0,0,0,.67-.23,1.26,1.26,0,0,0,.53-.7,1.14,1.14,0,0,0-.66-1.57.77.77,0,0,0-.71,0,2.35,2.35,0,0,0-.71.58l-.54.57a3.64,3.64,0,0,1-1.05.85,1.83,1.83,0,0,1-1.47.05,2.41,2.41,0,0,1-.24-4.34,2.85,2.85,0,0,1,1.48-.21l-.06.84a1.8,1.8,0,0,0-1.05.1,1.54,1.54,0,0,0,.13,2.79,1.1,1.1,0,0,0,1-.05,3.2,3.2,0,0,0,.79-.67l.52-.53a3.44,3.44,0,0,1,.92-.73,1.56,1.56,0,0,1,1.33-.07,1.93,1.93,0,0,1,1.11,2.63,2,2,0,0,1-.73,1,2.22,2.22,0,0,1-1,.41Z"/><path d="M175.41,135.85,169.34,133l.36-.75,6.07,2.85.77-1.64.71.33-1.9,4.05-.71-.34Z"/><path d="M157.32,18.05a100,100,0,1,0,24.56,139.27A100.11,100.11,0,0,0,157.32,18.05Zm-113,161.39A97.13,97.13,0,0,1,19.66,45.55L46.14,64.1l1.72-2.44L21.37,43.11A97,97,0,0,1,180.28,154.38l-26.49-18.55-1.71,2.45,26.48,18.54A97.12,97.12,0,0,1,44.32,179.44Z"/><path d="M64,61.2a3,3,0,0,1,1.31,1.67,2.1,2.1,0,0,1-.39,1.56,2,2,0,0,1-.8.68,1.46,1.46,0,0,1-.89.09,2.08,2.08,0,0,1,.6,1.07,1.94,1.94,0,0,1-.4,1.46,2.19,2.19,0,0,1-1.43,1,3,3,0,0,1-2.11-.65L57.4,66.33,62,59.8ZM61.6,63.5l.25.17a1.74,1.74,0,0,0,.89.35.87.87,0,0,0,.67-.4.81.81,0,0,0,.13-.72,1.6,1.6,0,0,0-.67-.72L62.63,62Zm-1.89,2.7.36.25a2,2,0,0,0,1.3.52.85.85,0,0,0,.6-.4.87.87,0,0,0,.17-.67c-.1-.43-.61-.79-.91-1l-.41-.29Z"/><path d="M72.84,73.18a3.39,3.39,0,0,1-2.17,1.55,3.86,3.86,0,0,1-4.07-2.85,3.38,3.38,0,0,1,.72-2.57L70,65.45l1.51,1-2.68,3.83a1.85,1.85,0,0,0-.43,1.33,1.5,1.5,0,0,0,.67,1,1.47,1.47,0,0,0,1.15.3,1.87,1.87,0,0,0,1.11-.86L74,68.26l1.51,1Z"/><path d="M80.76,73l-4.57,6.53-1.51-1.06,4.57-6.52Z"/><path d="M86,76.61l-3.68,5.25,2,1.42-.89,1.27L79.9,82.08l4.57-6.52Z"/><path d="M92.32,83l-3.68,5.26-1.51-1.06,3.68-5.25-1.42-1,.9-1.27,4.34,3-.89,1.27Z"/><path d="M104.19,89.37A3,3,0,0,1,105.51,91a2.07,2.07,0,0,1-.4,1.57,1.85,1.85,0,0,1-.79.68,1.54,1.54,0,0,1-.89.09,2.08,2.08,0,0,1,.6,1.07,2,2,0,0,1-.4,1.46,2.19,2.19,0,0,1-1.43,1,3,3,0,0,1-2.11-.65L97.63,94.5,102.2,88Zm-2.36,2.3.24.17a1.82,1.82,0,0,0,.9.35.87.87,0,0,0,.67-.4.8.8,0,0,0,.12-.72,1.48,1.48,0,0,0-.66-.72l-.24-.16Zm-1.89,2.7.36.25a2,2,0,0,0,1.3.52.92.92,0,0,0,.6-.4.86.86,0,0,0,.16-.67c-.09-.43-.6-.79-.9-1l-.41-.29Z"/><path d="M112.55,95.22A2.81,2.81,0,0,1,113.81,97a2.39,2.39,0,0,1-.45,1.86,2.19,2.19,0,0,1-1.44,1,2.43,2.43,0,0,1-1.26-.14l.14,4.08L109,102.43l0-3.81-1.8,2.58-1.51-1.06,4.57-6.52Zm-2.86,2.42.34.24a1.5,1.5,0,0,0,1.1.34,1.08,1.08,0,0,0,.69-.46,1,1,0,0,0,.16-.88,1.76,1.76,0,0,0-.69-.79l-.35-.24Z"/><path d="M118.68,107.4l-2.46-1.72-1.37.88-1.56-1.1,7.2-4.68,1.38,1-2,8.32L118.31,109Zm.4-1.44.73-2.75-2.35,1.62Z"/><path d="M122.85,112.16l4.57-6.52,1.31.91.6,6.69,2.95-4.21,1.5,1.06-4.57,6.52-1.31-.91-.58-6.71-3,4.23Z"/><path d="M139.52,114.11a4.17,4.17,0,0,1,1.94,2.7,3.78,3.78,0,0,1-.69,3,3.82,3.82,0,0,1-2.51,1.69,4.31,4.31,0,0,1-3.26-.82l-2.11-1.48,4.57-6.53ZM135.29,119l.4.28a2.85,2.85,0,0,0,1.79.6,2.45,2.45,0,0,0,1.74-1.13,2.34,2.34,0,0,0,.45-1.78,2.64,2.64,0,0,0-1.19-1.67l-.41-.28Z"/><path d="M148.66,122.88a1.94,1.94,0,0,0-.77-1.24,1,1,0,0,0-.79-.22.72.72,0,0,0-.46.3.52.52,0,0,0-.1.46,3,3,0,0,0,.56.95l.36.53a3.43,3.43,0,0,1,.54,1.12,2,2,0,0,1-.37,1.55,2.89,2.89,0,0,1-1.71,1.21,3.12,3.12,0,0,1-2.32-.63,3.44,3.44,0,0,1-1.1-1.18,5.18,5.18,0,0,1-.45-1.38l1.53-.53a4.94,4.94,0,0,0,.26.92,1.74,1.74,0,0,0,.66.81,1.26,1.26,0,0,0,.84.26.82.82,0,0,0,.6-.37.72.72,0,0,0,.11-.63,4.05,4.05,0,0,0-.51-.89l-.41-.56a2.78,2.78,0,0,1-.55-1.16,2,2,0,0,1,.41-1.41,2.43,2.43,0,0,1,1.59-1.07,2.56,2.56,0,0,1,2,.53,3.89,3.89,0,0,1,1.49,2Z"/><path d="M56.84,72.54a3.31,3.31,0,0,1,1.48,1.92,2.74,2.74,0,0,1-.52,2.25A2.84,2.84,0,0,1,56,78a3.05,3.05,0,0,1-2.29-.65l-1-.71-1.77,2.53L49.24,78l5.06-7.22Zm-3.2,2.71.59.42a1.57,1.57,0,0,0,1.09.36,1.22,1.22,0,0,0,.77-.53,1.15,1.15,0,0,0,.22-.89,1.54,1.54,0,0,0-.74-.92l-.56-.4Z"/><path d="M66.08,81.11l-2.42-1.7-1,1.4L65,82.42l-1,1.41L61.7,82.22l-1.12,1.6L63,85.51l-1,1.41-4.08-2.86L63,76.84l4.08,2.86Z"/><path d="M76.68,87.76a4.68,4.68,0,0,1-3.81,5.43,4.73,4.73,0,0,1-3.53-.89,4.85,4.85,0,0,1-2.07-3A4.5,4.5,0,0,1,68,85.79a5,5,0,0,1,3-2,4.75,4.75,0,0,1,3.57.92A4.68,4.68,0,0,1,76.68,87.76Zm-5.16-2A2.7,2.7,0,0,0,69.74,87a2.61,2.61,0,0,0,.65,3.76,2.69,2.69,0,0,0,2,.51,2.64,2.64,0,0,0,1.75-1.18A2.72,2.72,0,0,0,74.69,88a2.75,2.75,0,0,0-1.16-1.73A2.68,2.68,0,0,0,71.52,85.79Z"/><path d="M84.71,92.05A3.3,3.3,0,0,1,86.18,94a2.7,2.7,0,0,1-.52,2.25,2.84,2.84,0,0,1-1.81,1.27,3.05,3.05,0,0,1-2.29-.65l-1-.71-1.78,2.53-1.66-1.17,5-7.22ZM81.5,94.76l.6.42a1.53,1.53,0,0,0,1.08.36A1.24,1.24,0,0,0,84,95a1.19,1.19,0,0,0,.22-.89,1.58,1.58,0,0,0-.74-.92l-.57-.4Z"/><path d="M92.51,97.52l-4.07,5.81,2.24,1.57-1,1.41-3.9-2.74,5-7.22Z"/><path d="M101.28,105.75l-2.42-1.69-1,1.4,2.29,1.61-1,1.4-2.3-1.6-1.12,1.6,2.41,1.69-1,1.41-4.08-2.86,5.05-7.22,4.08,2.86Z"/><path d="M112.79,111.71l-4.08,5.82L111,119.1l-1,1.4-3.91-2.73,5.06-7.22Z"/><path d="M124,120.89a4.7,4.7,0,0,1-3.81,5.44,4.7,4.7,0,0,1-3.53-.9,4.83,4.83,0,0,1-2.08-3,4.55,4.55,0,0,1,.76-3.47,5,5,0,0,1,3-2,5.22,5.22,0,0,1,5.63,3.92Zm-5.16-2a2.65,2.65,0,0,0-1.78,1.19,2.61,2.61,0,0,0,.65,3.76,2.67,2.67,0,0,0,2,.51,2.63,2.63,0,0,0,1.76-1.18,2.6,2.6,0,0,0-.65-3.79A2.69,2.69,0,0,0,118.85,118.93Z"/><path d="M130.17,123.89l-1.41,5.9,5.07-3.34,1.8,1.26-8.12,5.07-1.13-.78,2-9.37Z"/><path d="M142,134.3l-2.41-1.69-1,1.4,2.3,1.6L140,137l-2.29-1.61-1.12,1.6,2.41,1.7-1,1.4-4.08-2.85L139,130l4.08,2.86Z"/></g></g></svg>