<svg xmlns="http://www.w3.org/2000/svg" viewBox="0 0 1937.94 1080"><title>footer-dark-background</title><g id="Ebene_2" data-name="Ebene 2"><g id="Ebene_1-2" data-name="Ebene 1"><polygon points="1936.52 82.47 1856.88 0.28 1777.63 82.44 1698.1 0 1618.18 82.47 1538.55 0.28 1459.28 82.44 1379.76 0 1299.85 82.47 1220.2 0.28 1140.94 82.44 1061.42 0 1061.02 0.4 1060.9 0.28 1006.13 57.07 981.59 82.38 902.12 0 822.2 82.47 742.57 0.28 663.31 82.44 583.78 0 503.87 82.47 424.23 0.28 344.96 82.44 265.44 0 185.53 82.47 105.88 0.28 26.63 82.44 0 54.84 0 79.93 0 1080 1937.94 1080 1937.94 106.04 1937.94 81 1936.52 82.47"/></g></g></svg>