<svg xmlns="http://www.w3.org/2000/svg" viewBox="0 0 812.66 1134.92"><g id="Ebene_2" data-name="Ebene 2"><g id="Ebene_1-2" data-name="Ebene 1"><path d="M280.44,132.76,255.24,71l16-6.54,45,25.72L300.79,52.42l16-6.54L342,107.64l-16,6.54L281,88.45l15.41,37.78Z" transform="translate(-255.24 -15.6)"/><path d="M409.48,80l-23.71,4.83-2.18,11.87-17.93,3.65,11.78-70.47L396,26.09l37.9,60.36-18.13,3.69Zm-7.14-12L390.68,48.29l-2.84,22.63Z" transform="translate(-255.24 -15.6)"/><path d="M504.27,80.92c-6.79,2.78-10.55,3.74-14.85,3.92-11.59.48-20.47-3.76-26.19-8.92a35,35,0,0,1-11.1-23.86A35,35,0,0,1,486,15.62a41.4,41.4,0,0,1,15.73,2.75l.86,20.68a18.58,18.58,0,0,0-15.39-6.66,16.91,16.91,0,0,0-11.81,4.89,18.65,18.65,0,0,0-5.23,13.93A18.4,18.4,0,0,0,476.05,64a18.67,18.67,0,0,0,12.58,4.08c2.59-.11,9-.68,14.79-7.62Z" transform="translate(-255.24 -15.6)"/><path d="M555,44.15l24.81,3.08,3.07-24.71,17.27,2.15-8.22,66.19-17.27-2.14L578,61.92l-24.81-3.08-3.33,26.79L532.69,83.5l8.22-66.19,17.17,2.13Z" transform="translate(-255.24 -15.6)"/><path d="M704.46,114.51l-22.4-9.15-8.4,8.67-16.95-6.92L705.63,55l17.5,7.15-2,71.23-17.13-7Zm.73-14,1.23-22.83L691.49,95Z" transform="translate(-255.24 -15.6)"/><path d="M792.26,97.73,765.47,142.3,783.3,153l-7.58,12.6L743.07,146l34.36-57.16Z" transform="translate(-255.24 -15.6)"/><path d="M852.56,139.64l-32.32,40.74,16.3,12.92-9.14,11.52-29.85-23.68L839,128.89Z" transform="translate(-255.24 -15.6)"/><path d="M910.79,214.05l-14.33-14.8-8,7.72,13.57,14-10.56,10.23-13.57-14-8.26,8L884,240l-10.56,10.22L847.07,223,895,176.6l26.37,27.22Z" transform="translate(-255.24 -15.6)"/><path d="M892.25,271.47l54.82-38,9.85,14.22-15.35,49.46,33.53-23.24L985,288.12l-54.82,38-9.86-14.22,15.36-49.46-33.53,23.24Z" transform="translate(-255.24 -15.6)"/><path d="M1034.46,394.5c1.69,4.71,3.1,11,0,17.34a22,22,0,0,1-12.2,10.43c-5.36,1.92-10.74,1.73-14.87-.3a18.62,18.62,0,0,1-7.43-7.11l-18.65,28.89L974,423.51l18.49-24.26-24.1,8.64-5.84-16.29,62.79-22.51Zm-31.42,1,1.12,3.1c.88,2.45,2.78,5.7,5.37,7a8.34,8.34,0,0,0,6,.18,7.87,7.87,0,0,0,4.49-4.06c1-2,.93-5.11-.35-8.69l-1.11-3.1Z" transform="translate(-255.24 -15.6)"/><path d="M1045.35,495.05l-4-20.21L1030.44,477l3.81,19.13L1019.84,499,1016,479.88l-11.28,2.25,4,20.2-14.41,2.87L987,468l65.42-13,7.4,37.16Z" transform="translate(-255.24 -15.6)"/><path d="M1037.46,564l1.23,34.38c-13.19.47-22.68-1.89-30.36-9.62-6.75-6.76-8.94-14.68-9.24-23.18-.43-12,3.67-20.34,9-25.93a33.61,33.61,0,0,1,23.74-10.47,34.76,34.76,0,0,1,25.34,9.1c5.69,5.3,10.3,13.73,10.73,25.53.22,6.19-.94,12.94-3.85,18.15a32.63,32.63,0,0,1-13.26,12.38l-7.39-16.24a16.35,16.35,0,0,0,6.52-5,14,14,0,0,0,3-9.41,16.13,16.13,0,0,0-5-11.23c-4-3.76-10.3-5.43-15.49-5.24a20.78,20.78,0,0,0-14.2,5.81,15.77,15.77,0,0,0-4.66,12.38,14.31,14.31,0,0,0,3.44,9.48,11.92,11.92,0,0,0,7.55,3.83l-.52-14.19Z" transform="translate(-255.24 -15.6)"/><path d="M1045.29,672l2.52-20.44-11-1.37-2.4,19.35-14.59-1.8,2.4-19.35L1010.8,647l-2.53,20.45-14.59-1.81L998.33,628l66.2,8.19-4.66,37.62Z" transform="translate(-255.24 -15.6)"/><path d="M1048.18,727.49l-50.31-13.12-5.25,20.13-14.23-3.71L988,693.92l64.54,16.83Z" transform="translate(-255.24 -15.6)"/><path d="M970.6,755.91l60.95,27.1-7,15.81-50.24,12.57L1011.56,828l-7,15.81-60.95-27.1,7-15.81,50.24-12.57-37.28-16.58Z" transform="translate(-255.24 -15.6)"/><path d="M904.63,878.43l51.61,42.26-14.38,17.56c-4.25,5.19-12,13.28-23.91,14.68-10.75,1.28-19.13-3.64-24.7-8.2-6.81-5.58-11.45-12.22-12.36-21.37a36.23,36.23,0,0,1,8.4-26.2Zm.41,22.7-2.22,2.71c-2.66,3.25-6.09,8.07-5.53,14.34.23,3,1.64,7.93,7.37,12.62,4.79,3.93,10.1,5.82,14.59,5.23,5.54-.77,9.27-4.69,12-8l2.66-3.25Z" transform="translate(-255.24 -15.6)"/><path d="M853.71,1007.63,869,993.86l-7.42-8.26-14.51,13-9.82-10.93,14.5-13-7.69-8.55-15.32,13.77L819,969l28.18-25.34,44.59,49.61-28.19,25.33Z" transform="translate(-255.24 -15.6)"/><path d="M810.88,1057.23c-4.17,2.77-9.94,5.64-16.84,4.1a21.89,21.89,0,0,1-13-9.34c-3.15-4.75-4.25-10-3.27-14.51a18.64,18.64,0,0,1,5.12-8.92l-32.52-11.19,17.92-11.89,28,12.15L782.07,996.3l14.41-9.57,36.89,55.57ZM802.42,1027l-2.75,1.82c-2.16,1.44-4.86,4.07-5.5,6.9a8.28,8.28,0,0,0,1.26,5.88,7.88,7.88,0,0,0,5,3.4c2.21.44,5.18-.33,8.35-2.43l2.75-1.83Z" transform="translate(-255.24 -15.6)"/><path d="M687.07,1089.31l-11,32.93-20.21,7,14.66-38.54L631.7,1067l21.16-7.35,30.83,19.89-9.48-27.3,16.34-5.68,21.88,63-16.34,5.68Z" transform="translate(-255.24 -15.6)"/><path d="M604.78,1140.49l-6.45-39c-.46-2.77-1.26-7-5-9.61a12.28,12.28,0,0,0-16,2.35c-3.38,4.11-2.48,8.93-1.87,12.58l6.21,37.49-17.07,2.83-6.26-37.79c-1.15-6.91-2-14.16,3.87-22.54,4.59-6.54,11.07-10.25,20.35-11.78,10.36-1.72,18.34.61,23.11,4.28,6.75,5.27,8.83,13.54,10,20.55l6.26,37.78Z" transform="translate(-255.24 -15.6)"/><path d="M522.62,1083.83l-1.16,66.69-17.3-.3L473,1108.87l-.71,40.8-17.3-.31,1.16-66.69,17.3.3,31.19,41.35.71-40.79Z" transform="translate(-255.24 -15.6)"/><path d="M417.08,1098c-3.06-4.07-8-8.26-13.94-9.27-3.46-.59-5.71.14-7,1.14a6,6,0,0,0-2.38,3.86,5.23,5.23,0,0,0,1.2,4.26c1.43,1.76,3.87,2.89,7.89,4.89l4.2,2.14c2.61,1.36,6.4,3.53,8.56,6.94,2.73,4.22,2.34,8.92,1.77,12.27-1.38,8.08-5.38,12.47-8.72,14.85-3.93,2.78-9.93,4.7-17.92,3.33a46.75,46.75,0,0,1-19.4-8.78l9.07-12.15c4.44,4.92,8.22,6,10.48,6.35a8.3,8.3,0,0,0,6-1,5,5,0,0,0,2.28-3.27,4.49,4.49,0,0,0-.38-3.1c-.4-.68-1.38-2.07-5.22-3.94l-4.95-2.46c-3.93-2-8-4.21-10.83-8.54-2.74-4.13-3-7.92-2.24-12.46,1-6,3.5-11.58,9-15.5,6.58-4.67,13.56-4.59,20.56-3.4a35.94,35.94,0,0,1,12.55,4.37,46.58,46.58,0,0,1,9.06,6.92Z" transform="translate(-255.24 -15.6)"/><path d="M311.84,1106.13l15.53-49.63,16.51,5.17-15.53,49.63,13.56,4.24-4.39,14-43.62-13.65,4.39-14Z" transform="translate(-255.24 -15.6)"/><path d="M289.55,1043.49a10.4,10.4,0,0,1-13.84,13.22,10.48,10.48,0,0,1-5.47-5.92,10.38,10.38,0,0,1,6-13.22,10.2,10.2,0,0,1,7.93.13A10.09,10.09,0,0,1,289.55,1043.49Z" transform="translate(-255.24 -15.6)"/><g id="Ebene_2-2" data-name="Ebene 2"><g id="Ebene_1-2-2" data-name="Ebene 1-2"><polygon points="274.17 617.74 244.76 588.34 215.36 617.74 194.76 597.15 224.17 567.74 194.76 538.34 215.36 517.74 244.76 547.15 274.17 517.74 294.76 538.34 265.36 567.74 294.76 597.15 274.17 617.74"/></g></g></g></g></svg>