<svg xmlns="http://www.w3.org/2000/svg" viewBox="0 0 792.83 445.97"><g id="Ebene_2" data-name="Ebene 2"><g id="Ebene_1-2" data-name="Ebene 1"><path d="M785.43,3.66a4.39,4.39,0,0,1,.07-.72,4.11,4.11,0,0,1,.21-.68,4.21,4.21,0,0,1,.34-.63,3.58,3.58,0,0,1,.47-.56A3.71,3.71,0,0,1,789.13,0a3.51,3.51,0,0,1,.72.07,3.94,3.94,0,0,1,.69.21,3,3,0,0,1,.64.34,3.45,3.45,0,0,1,.56.45,3.51,3.51,0,0,1,.46.56,2.94,2.94,0,0,1,.34.63,3.34,3.34,0,0,1,.21.68,3.45,3.45,0,0,1,0,1.43,3.43,3.43,0,0,1-.21.69,3.2,3.2,0,0,1-.34.63,3.05,3.05,0,0,1-.46.55,3.45,3.45,0,0,1-.56.45,3,3,0,0,1-.64.34,3.24,3.24,0,0,1-.69.21,3.51,3.51,0,0,1-.72.07,3.71,3.71,0,0,1-2.61-1.07,3.1,3.1,0,0,1-.47-.55,4.77,4.77,0,0,1-.34-.63,4.22,4.22,0,0,1-.21-.69A4.27,4.27,0,0,1,785.43,3.66Z"/><path d="M789.13,350.92a3.68,3.68,0,0,1,3.7,3.66h0a3.68,3.68,0,0,1-3.7,3.65h0a3.67,3.67,0,0,1-3.7-3.65h0A3.68,3.68,0,0,1,789.13,350.92Zm0-87.73a3.68,3.68,0,0,1,3.7,3.66h0a3.68,3.68,0,0,1-3.7,3.66h0a3.68,3.68,0,0,1-3.7-3.66h0A3.68,3.68,0,0,1,789.13,263.19Zm0-87.73a3.68,3.68,0,0,1,3.7,3.66h0a3.68,3.68,0,0,1-3.7,3.65h0a3.67,3.67,0,0,1-3.7-3.65h0A3.68,3.68,0,0,1,789.13,175.46Zm0-87.73a3.68,3.68,0,0,1,3.7,3.66h0a3.68,3.68,0,0,1-3.7,3.66h0a3.68,3.68,0,0,1-3.7-3.66h0A3.68,3.68,0,0,1,789.13,87.73Z"/><path d="M785.43,442.31a3.66,3.66,0,0,1,1.09-2.59,3.71,3.71,0,0,1,2.61-1.07,4.39,4.39,0,0,1,.72.07,3.94,3.94,0,0,1,.69.21,3,3,0,0,1,.64.34,3.45,3.45,0,0,1,.56.45,3.64,3.64,0,0,1,.8,4,3.2,3.2,0,0,1-.34.63,3.05,3.05,0,0,1-.46.55,4.15,4.15,0,0,1-.56.46,3.51,3.51,0,0,1-.64.33,3.24,3.24,0,0,1-.69.21,3.53,3.53,0,0,1-.72.08,3.7,3.7,0,0,1-3.7-3.66Z"/><path d="M698.16,3.66a4.39,4.39,0,0,1,.07-.72,4.11,4.11,0,0,1,.21-.68,4.21,4.21,0,0,1,.34-.63,3.58,3.58,0,0,1,.47-.56A3.71,3.71,0,0,1,701.86,0a3.51,3.51,0,0,1,.72.07,4.22,4.22,0,0,1,.69.21,3,3,0,0,1,.64.34,3.45,3.45,0,0,1,.56.45,3.51,3.51,0,0,1,.46.56,2.94,2.94,0,0,1,.34.63,3.34,3.34,0,0,1,.21.68,3.45,3.45,0,0,1,0,1.43,3.43,3.43,0,0,1-.21.69,3.2,3.2,0,0,1-.34.63,3.05,3.05,0,0,1-.46.55,3.45,3.45,0,0,1-.56.45,3,3,0,0,1-.64.34,3.43,3.43,0,0,1-.69.21,3.51,3.51,0,0,1-.72.07,3.71,3.71,0,0,1-2.61-1.07,3.1,3.1,0,0,1-.47-.55,4.77,4.77,0,0,1-.34-.63,4.22,4.22,0,0,1-.21-.69A4.27,4.27,0,0,1,698.16,3.66Z"/><path d="M701.86,350.92a3.68,3.68,0,0,1,3.7,3.66h0a3.68,3.68,0,0,1-3.7,3.65h0a3.67,3.67,0,0,1-3.7-3.65h0A3.68,3.68,0,0,1,701.86,350.92Zm0-87.73a3.68,3.68,0,0,1,3.7,3.66h0a3.68,3.68,0,0,1-3.7,3.66h0a3.68,3.68,0,0,1-3.7-3.66h0A3.68,3.68,0,0,1,701.86,263.19Zm0-87.73a3.68,3.68,0,0,1,3.7,3.66h0a3.68,3.68,0,0,1-3.7,3.65h0a3.67,3.67,0,0,1-3.7-3.65h0A3.68,3.68,0,0,1,701.86,175.46Zm0-87.73a3.68,3.68,0,0,1,3.7,3.66h0a3.68,3.68,0,0,1-3.7,3.66h0a3.68,3.68,0,0,1-3.7-3.66h0A3.68,3.68,0,0,1,701.86,87.73Z"/><path d="M698.16,442.31a3.66,3.66,0,0,1,1.09-2.59,3.71,3.71,0,0,1,2.61-1.07,4.39,4.39,0,0,1,.72.07,4.22,4.22,0,0,1,.69.21,3,3,0,0,1,.64.34,3.45,3.45,0,0,1,.56.45,3.64,3.64,0,0,1,.8,4,3.2,3.2,0,0,1-.34.63,3.05,3.05,0,0,1-.46.55,4.15,4.15,0,0,1-.56.46,3.51,3.51,0,0,1-.64.33,3.43,3.43,0,0,1-.69.21,3.53,3.53,0,0,1-.72.08,3.7,3.7,0,0,1-3.7-3.66Z"/><path d="M610.89,3.66a4.39,4.39,0,0,1,.07-.72,4.11,4.11,0,0,1,.21-.68,4.21,4.21,0,0,1,.34-.63,3.58,3.58,0,0,1,.47-.56A3.71,3.71,0,0,1,614.59,0a3.51,3.51,0,0,1,.72.07,4.22,4.22,0,0,1,.69.21,3,3,0,0,1,.64.34,3.45,3.45,0,0,1,.56.45,3.51,3.51,0,0,1,.46.56,2.94,2.94,0,0,1,.34.63,3.34,3.34,0,0,1,.21.68,3.45,3.45,0,0,1,0,1.43,3.43,3.43,0,0,1-.21.69,3.2,3.2,0,0,1-.34.63,3.05,3.05,0,0,1-.46.55,3.45,3.45,0,0,1-.56.45A3,3,0,0,1,616,7a3.43,3.43,0,0,1-.69.21,3.51,3.51,0,0,1-.72.07A3.71,3.71,0,0,1,612,6.24a3.1,3.1,0,0,1-.47-.55,4.77,4.77,0,0,1-.34-.63,4.22,4.22,0,0,1-.21-.69A4.27,4.27,0,0,1,610.89,3.66Z"/><path d="M614.59,350.92a3.68,3.68,0,0,1,3.7,3.66h0a3.68,3.68,0,0,1-3.7,3.65h0a3.67,3.67,0,0,1-3.7-3.65h0A3.68,3.68,0,0,1,614.59,350.92Zm0-87.73a3.68,3.68,0,0,1,3.7,3.66h0a3.68,3.68,0,0,1-3.7,3.66h0a3.68,3.68,0,0,1-3.7-3.66h0A3.68,3.68,0,0,1,614.59,263.19Zm0-87.73a3.68,3.68,0,0,1,3.7,3.66h0a3.68,3.68,0,0,1-3.7,3.65h0a3.67,3.67,0,0,1-3.7-3.65h0A3.68,3.68,0,0,1,614.59,175.46Zm0-87.73a3.68,3.68,0,0,1,3.7,3.66h0a3.68,3.68,0,0,1-3.7,3.66h0a3.68,3.68,0,0,1-3.7-3.66h0A3.68,3.68,0,0,1,614.59,87.73Z"/><path d="M610.89,442.31a3.66,3.66,0,0,1,1.09-2.59,3.71,3.71,0,0,1,2.61-1.07,4.39,4.39,0,0,1,.72.07,4.22,4.22,0,0,1,.69.21,3,3,0,0,1,.64.34,3.45,3.45,0,0,1,.56.45,3.64,3.64,0,0,1,.8,4,3.2,3.2,0,0,1-.34.63,3.05,3.05,0,0,1-.46.55,4.15,4.15,0,0,1-.56.46,3.51,3.51,0,0,1-.64.33,3.43,3.43,0,0,1-.69.21,3.53,3.53,0,0,1-.72.08,3.7,3.7,0,0,1-3.7-3.66Z"/><path d="M523.62,3.66a4.39,4.39,0,0,1,.07-.72,4.11,4.11,0,0,1,.21-.68,4.21,4.21,0,0,1,.34-.63,3.58,3.58,0,0,1,.47-.56A3.71,3.71,0,0,1,527.32,0a3.51,3.51,0,0,1,.72.07,4.22,4.22,0,0,1,.69.21,3,3,0,0,1,.64.34,3.45,3.45,0,0,1,.56.45,3.51,3.51,0,0,1,.46.56,2.94,2.94,0,0,1,.34.63,3.34,3.34,0,0,1,.21.68,3.45,3.45,0,0,1,0,1.43,3.43,3.43,0,0,1-.21.69,3.2,3.2,0,0,1-.34.63,3.05,3.05,0,0,1-.46.55,3.45,3.45,0,0,1-.56.45,3,3,0,0,1-.64.34,3.43,3.43,0,0,1-.69.21,3.51,3.51,0,0,1-.72.07,3.71,3.71,0,0,1-2.61-1.07,3.1,3.1,0,0,1-.47-.55,4.77,4.77,0,0,1-.34-.63,4.22,4.22,0,0,1-.21-.69A4.27,4.27,0,0,1,523.62,3.66Z"/><path d="M527.32,350.92a3.68,3.68,0,0,1,3.7,3.66h0a3.68,3.68,0,0,1-3.7,3.65h0a3.67,3.67,0,0,1-3.7-3.65h0A3.68,3.68,0,0,1,527.32,350.92Zm0-87.73a3.68,3.68,0,0,1,3.7,3.66h0a3.68,3.68,0,0,1-3.7,3.66h0a3.68,3.68,0,0,1-3.7-3.66h0A3.68,3.68,0,0,1,527.32,263.19Zm0-87.73a3.68,3.68,0,0,1,3.7,3.66h0a3.68,3.68,0,0,1-3.7,3.65h0a3.67,3.67,0,0,1-3.7-3.65h0A3.68,3.68,0,0,1,527.32,175.46Zm0-87.73a3.68,3.68,0,0,1,3.7,3.66h0a3.68,3.68,0,0,1-3.7,3.66h0a3.68,3.68,0,0,1-3.7-3.66h0A3.68,3.68,0,0,1,527.32,87.73Z"/><path d="M523.62,442.31a3.62,3.62,0,0,1,1.09-2.59,3.71,3.71,0,0,1,2.61-1.07,4.39,4.39,0,0,1,.72.07,4.22,4.22,0,0,1,.69.21,3,3,0,0,1,.64.34,3.45,3.45,0,0,1,.56.45,3.64,3.64,0,0,1,.8,4,3.2,3.2,0,0,1-.34.63,3.05,3.05,0,0,1-.46.55,4.15,4.15,0,0,1-.56.46,3.51,3.51,0,0,1-.64.33,3.43,3.43,0,0,1-.69.21,3.53,3.53,0,0,1-.72.08,3.68,3.68,0,0,1-2.61-1.08A3.61,3.61,0,0,1,523.62,442.31Z"/><path d="M436.35,3.66a4.39,4.39,0,0,1,.07-.72,4.11,4.11,0,0,1,.21-.68,4.21,4.21,0,0,1,.34-.63,3.58,3.58,0,0,1,.47-.56A3.71,3.71,0,0,1,440.05,0a3.51,3.51,0,0,1,.72.07,4.22,4.22,0,0,1,.69.21,3,3,0,0,1,.64.34,3.45,3.45,0,0,1,.56.45,3.51,3.51,0,0,1,.46.56,2.94,2.94,0,0,1,.34.63,3.34,3.34,0,0,1,.21.68,3.45,3.45,0,0,1,0,1.43,3.43,3.43,0,0,1-.21.69,3.2,3.2,0,0,1-.34.63,3.05,3.05,0,0,1-.46.55,3.45,3.45,0,0,1-.56.45,3,3,0,0,1-.64.34,3.43,3.43,0,0,1-.69.21,3.51,3.51,0,0,1-.72.07,3.71,3.71,0,0,1-2.61-1.07,3.1,3.1,0,0,1-.47-.55,4.77,4.77,0,0,1-.34-.63,4.22,4.22,0,0,1-.21-.69A4.27,4.27,0,0,1,436.35,3.66Z"/><path d="M440.05,350.92a3.68,3.68,0,0,1,3.7,3.66h0a3.68,3.68,0,0,1-3.7,3.65h0a3.67,3.67,0,0,1-3.7-3.65h0A3.68,3.68,0,0,1,440.05,350.92Zm0-87.73a3.68,3.68,0,0,1,3.7,3.66h0a3.68,3.68,0,0,1-3.7,3.66h0a3.68,3.68,0,0,1-3.7-3.66h0A3.68,3.68,0,0,1,440.05,263.19Zm0-87.73a3.68,3.68,0,0,1,3.7,3.66h0a3.68,3.68,0,0,1-3.7,3.65h0a3.67,3.67,0,0,1-3.7-3.65h0A3.68,3.68,0,0,1,440.05,175.46Zm0-87.73a3.68,3.68,0,0,1,3.7,3.66h0a3.68,3.68,0,0,1-3.7,3.66h0a3.68,3.68,0,0,1-3.7-3.66h0A3.68,3.68,0,0,1,440.05,87.73Z"/><path d="M436.35,442.31a3.62,3.62,0,0,1,1.09-2.59,3.71,3.71,0,0,1,2.61-1.07,4.39,4.39,0,0,1,.72.07,4.22,4.22,0,0,1,.69.21,3,3,0,0,1,.64.34,3.45,3.45,0,0,1,.56.45,3.64,3.64,0,0,1,.8,4,3.2,3.2,0,0,1-.34.63,3.05,3.05,0,0,1-.46.55,4.15,4.15,0,0,1-.56.46,3.51,3.51,0,0,1-.64.33,3.43,3.43,0,0,1-.69.21,3.53,3.53,0,0,1-.72.08,3.68,3.68,0,0,1-2.61-1.08A3.61,3.61,0,0,1,436.35,442.31Z"/><path d="M349.08,3.66a3.51,3.51,0,0,1,.07-.72,4.11,4.11,0,0,1,.21-.68,4.21,4.21,0,0,1,.34-.63,3.58,3.58,0,0,1,.47-.56A3.71,3.71,0,0,1,352.78,0a3.51,3.51,0,0,1,.72.07,4.22,4.22,0,0,1,.69.21,3,3,0,0,1,.64.34,3.45,3.45,0,0,1,.56.45,3.51,3.51,0,0,1,.46.56,2.94,2.94,0,0,1,.34.63,3.34,3.34,0,0,1,.21.68,3.45,3.45,0,0,1,0,1.43,3.43,3.43,0,0,1-.21.69,3.2,3.2,0,0,1-.34.63,3.05,3.05,0,0,1-.46.55,3.45,3.45,0,0,1-.56.45,3,3,0,0,1-.64.34,3.43,3.43,0,0,1-.69.21,3.51,3.51,0,0,1-.72.07,3.71,3.71,0,0,1-2.61-1.07,3.1,3.1,0,0,1-.47-.55,4.77,4.77,0,0,1-.34-.63,4.22,4.22,0,0,1-.21-.69A3.42,3.42,0,0,1,349.08,3.66Z"/><path d="M352.78,350.92a3.68,3.68,0,0,1,3.7,3.66h0a3.68,3.68,0,0,1-3.7,3.65h0a3.67,3.67,0,0,1-3.7-3.65h0A3.68,3.68,0,0,1,352.78,350.92Zm0-87.73a3.68,3.68,0,0,1,3.7,3.66h0a3.68,3.68,0,0,1-3.7,3.66h0a3.68,3.68,0,0,1-3.7-3.66h0A3.68,3.68,0,0,1,352.78,263.19Zm0-87.73a3.68,3.68,0,0,1,3.7,3.66h0a3.68,3.68,0,0,1-3.7,3.65h0a3.67,3.67,0,0,1-3.7-3.65h0A3.68,3.68,0,0,1,352.78,175.46Zm0-87.73a3.68,3.68,0,0,1,3.7,3.66h0a3.68,3.68,0,0,1-3.7,3.66h0a3.68,3.68,0,0,1-3.7-3.66h0A3.68,3.68,0,0,1,352.78,87.73Z"/><path d="M349.08,442.31a3.62,3.62,0,0,1,1.09-2.59,3.71,3.71,0,0,1,2.61-1.07,4.39,4.39,0,0,1,.72.07,4.22,4.22,0,0,1,.69.21,3,3,0,0,1,.64.34,3.45,3.45,0,0,1,.56.45,3.64,3.64,0,0,1,.8,4,3.2,3.2,0,0,1-.34.63,3.05,3.05,0,0,1-.46.55,4.15,4.15,0,0,1-.56.46,3.51,3.51,0,0,1-.64.33,3.43,3.43,0,0,1-.69.21,3.53,3.53,0,0,1-.72.08,3.68,3.68,0,0,1-2.61-1.08A3.61,3.61,0,0,1,349.08,442.31Z"/><path d="M261.81,3.66a3.51,3.51,0,0,1,.07-.72,4.11,4.11,0,0,1,.21-.68,3.46,3.46,0,0,1,.34-.63,3.58,3.58,0,0,1,.47-.56A3.71,3.71,0,0,1,265.51,0a3.51,3.51,0,0,1,.72.07,4.22,4.22,0,0,1,.69.21,3,3,0,0,1,.64.34,3.45,3.45,0,0,1,.56.45,3.51,3.51,0,0,1,.46.56,2.94,2.94,0,0,1,.34.63,3.34,3.34,0,0,1,.21.68,3.45,3.45,0,0,1,0,1.43,3.43,3.43,0,0,1-.21.69,3.2,3.2,0,0,1-.34.63,3.05,3.05,0,0,1-.46.55,3.45,3.45,0,0,1-.56.45,3,3,0,0,1-.64.34,3.43,3.43,0,0,1-.69.21,3.51,3.51,0,0,1-.72.07,3.71,3.71,0,0,1-2.61-1.07,3.1,3.1,0,0,1-.47-.55,3.83,3.83,0,0,1-.34-.63,4.22,4.22,0,0,1-.21-.69A3.42,3.42,0,0,1,261.81,3.66Z"/><path d="M265.51,350.92a3.68,3.68,0,0,1,3.7,3.66h0a3.68,3.68,0,0,1-3.7,3.65h0a3.67,3.67,0,0,1-3.7-3.65h0A3.68,3.68,0,0,1,265.51,350.92Zm0-87.73a3.68,3.68,0,0,1,3.7,3.66h0a3.68,3.68,0,0,1-3.7,3.66h0a3.68,3.68,0,0,1-3.7-3.66h0A3.68,3.68,0,0,1,265.51,263.19Zm0-87.73a3.68,3.68,0,0,1,3.7,3.66h0a3.68,3.68,0,0,1-3.7,3.65h0a3.67,3.67,0,0,1-3.7-3.65h0A3.68,3.68,0,0,1,265.51,175.46Zm0-87.73a3.68,3.68,0,0,1,3.7,3.66h0a3.68,3.68,0,0,1-3.7,3.66h0a3.68,3.68,0,0,1-3.7-3.66h0A3.68,3.68,0,0,1,265.51,87.73Z"/><path d="M261.81,442.31a3.62,3.62,0,0,1,1.09-2.59,3.71,3.71,0,0,1,2.61-1.07,4.39,4.39,0,0,1,.72.07,4.22,4.22,0,0,1,.69.21,3,3,0,0,1,.64.34,3.45,3.45,0,0,1,.56.45,3.64,3.64,0,0,1,.8,4,3.2,3.2,0,0,1-.34.63,3.05,3.05,0,0,1-.46.55,4.15,4.15,0,0,1-.56.46,3.51,3.51,0,0,1-.64.33,3.43,3.43,0,0,1-.69.21,3.53,3.53,0,0,1-.72.08,3.68,3.68,0,0,1-2.61-1.08A3.61,3.61,0,0,1,261.81,442.31Z"/><path d="M174.54,3.66a3.51,3.51,0,0,1,.07-.72,4.11,4.11,0,0,1,.21-.68,3.46,3.46,0,0,1,.34-.63,3.58,3.58,0,0,1,.47-.56A3.71,3.71,0,0,1,178.24,0a3.51,3.51,0,0,1,.72.07,4.22,4.22,0,0,1,.69.21,3,3,0,0,1,.64.34,3.45,3.45,0,0,1,.56.45,3.51,3.51,0,0,1,.46.56,2.94,2.94,0,0,1,.34.63,3.34,3.34,0,0,1,.21.68,3.45,3.45,0,0,1,0,1.43,3.43,3.43,0,0,1-.21.69,3.2,3.2,0,0,1-.34.63,3.05,3.05,0,0,1-.46.55,3.45,3.45,0,0,1-.56.45,3,3,0,0,1-.64.34,3.43,3.43,0,0,1-.69.21,3.51,3.51,0,0,1-.72.07,3.71,3.71,0,0,1-2.61-1.07,3.1,3.1,0,0,1-.47-.55,3.83,3.83,0,0,1-.34-.63,4.22,4.22,0,0,1-.21-.69A3.42,3.42,0,0,1,174.54,3.66Z"/><path d="M178.24,350.92a3.68,3.68,0,0,1,3.7,3.66h0a3.68,3.68,0,0,1-3.7,3.65h0a3.67,3.67,0,0,1-3.7-3.65h0A3.68,3.68,0,0,1,178.24,350.92Zm0-87.73a3.68,3.68,0,0,1,3.7,3.66h0a3.68,3.68,0,0,1-3.7,3.66h0a3.68,3.68,0,0,1-3.7-3.66h0A3.68,3.68,0,0,1,178.24,263.19Zm0-87.73a3.68,3.68,0,0,1,3.7,3.66h0a3.68,3.68,0,0,1-3.7,3.65h0a3.67,3.67,0,0,1-3.7-3.65h0A3.68,3.68,0,0,1,178.24,175.46Zm0-87.73a3.68,3.68,0,0,1,3.7,3.66h0a3.68,3.68,0,0,1-3.7,3.66h0a3.68,3.68,0,0,1-3.7-3.66h0A3.68,3.68,0,0,1,178.24,87.73Z"/><path d="M174.54,442.31a3.62,3.62,0,0,1,1.09-2.59,3.71,3.71,0,0,1,2.61-1.07,4.39,4.39,0,0,1,.72.07,4.22,4.22,0,0,1,.69.21,3,3,0,0,1,.64.34,3.45,3.45,0,0,1,.56.45,3.64,3.64,0,0,1,.8,4,3.2,3.2,0,0,1-.34.63,3.05,3.05,0,0,1-.46.55,4.15,4.15,0,0,1-.56.46,3.51,3.51,0,0,1-.64.33,3.43,3.43,0,0,1-.69.21,3.53,3.53,0,0,1-.72.08,3.68,3.68,0,0,1-2.61-1.08A3.61,3.61,0,0,1,174.54,442.31Z"/><path d="M87.27,3.66a3.51,3.51,0,0,1,.07-.72,4.11,4.11,0,0,1,.21-.68,3.46,3.46,0,0,1,.34-.63,4.15,4.15,0,0,1,.46-.56A3.75,3.75,0,0,1,91,0a3.51,3.51,0,0,1,.72.07,4.22,4.22,0,0,1,.69.21A3,3,0,0,1,93,.62a3.45,3.45,0,0,1,.56.45,3.51,3.51,0,0,1,.46.56,2.94,2.94,0,0,1,.34.63,3.34,3.34,0,0,1,.21.68,3.45,3.45,0,0,1,0,1.43,3.43,3.43,0,0,1-.21.69,3.2,3.2,0,0,1-.34.63,3.05,3.05,0,0,1-.46.55,3.45,3.45,0,0,1-.56.45,3,3,0,0,1-.64.34,3.43,3.43,0,0,1-.69.21,3.51,3.51,0,0,1-.72.07,3.75,3.75,0,0,1-2.62-1.07,3.53,3.53,0,0,1-.46-.55,3.83,3.83,0,0,1-.34-.63,4.22,4.22,0,0,1-.21-.69A3.42,3.42,0,0,1,87.27,3.66Z"/><path d="M91,350.92a3.68,3.68,0,0,1,3.7,3.66h0a3.68,3.68,0,0,1-3.7,3.65h0a3.67,3.67,0,0,1-3.7-3.65h0A3.68,3.68,0,0,1,91,350.92Zm0-87.73a3.68,3.68,0,0,1,3.7,3.66h0a3.68,3.68,0,0,1-3.7,3.66h0a3.68,3.68,0,0,1-3.7-3.66h0A3.68,3.68,0,0,1,91,263.19Zm0-87.73a3.68,3.68,0,0,1,3.7,3.66h0a3.68,3.68,0,0,1-3.7,3.65h0a3.67,3.67,0,0,1-3.7-3.65h0A3.68,3.68,0,0,1,91,175.46Zm0-87.73a3.68,3.68,0,0,1,3.7,3.66h0A3.68,3.68,0,0,1,91,95.05h0a3.68,3.68,0,0,1-3.7-3.66h0A3.68,3.68,0,0,1,91,87.73Z"/><path d="M87.27,442.31a3.65,3.65,0,0,1,1.08-2.59A3.75,3.75,0,0,1,91,438.65a4.39,4.39,0,0,1,.72.07,4.22,4.22,0,0,1,.69.21,3,3,0,0,1,.64.34,3.45,3.45,0,0,1,.56.45,3.64,3.64,0,0,1,.8,4,3.2,3.2,0,0,1-.34.63,3.05,3.05,0,0,1-.46.55,4.15,4.15,0,0,1-.56.46,3.51,3.51,0,0,1-.64.33,3.43,3.43,0,0,1-.69.21A3.53,3.53,0,0,1,91,446a3.72,3.72,0,0,1-2.62-1.08A3.64,3.64,0,0,1,87.27,442.31Z"/><path d="M0,3.66a3.51,3.51,0,0,1,.07-.72,4.11,4.11,0,0,1,.21-.68,3.46,3.46,0,0,1,.34-.63,4.15,4.15,0,0,1,.46-.56A3.75,3.75,0,0,1,3.7,0a3.51,3.51,0,0,1,.72.07,4.22,4.22,0,0,1,.69.21,3.28,3.28,0,0,1,.64.34,3.45,3.45,0,0,1,.56.45,3.51,3.51,0,0,1,.46.56,2.94,2.94,0,0,1,.34.63,3.34,3.34,0,0,1,.21.68,3.45,3.45,0,0,1,0,1.43,3.43,3.43,0,0,1-.21.69,3.2,3.2,0,0,1-.34.63,3.05,3.05,0,0,1-.46.55,3.45,3.45,0,0,1-.56.45A3.28,3.28,0,0,1,5.11,7a3.43,3.43,0,0,1-.69.21,3.51,3.51,0,0,1-.72.07A3.75,3.75,0,0,1,1.08,6.24a3.53,3.53,0,0,1-.46-.55,3.83,3.83,0,0,1-.34-.63,4.22,4.22,0,0,1-.21-.69A3.42,3.42,0,0,1,0,3.66Z"/><path d="M3.7,350.92a3.68,3.68,0,0,1,3.7,3.66h0a3.68,3.68,0,0,1-3.7,3.65h0A3.67,3.67,0,0,1,0,354.58H0A3.68,3.68,0,0,1,3.7,350.92Zm0-87.73a3.68,3.68,0,0,1,3.7,3.66h0a3.68,3.68,0,0,1-3.7,3.66h0A3.68,3.68,0,0,1,0,266.85H0A3.68,3.68,0,0,1,3.7,263.19Zm0-87.73a3.68,3.68,0,0,1,3.7,3.66h0a3.68,3.68,0,0,1-3.7,3.65h0A3.67,3.67,0,0,1,0,179.12H0A3.68,3.68,0,0,1,3.7,175.46Zm0-87.73a3.68,3.68,0,0,1,3.7,3.66h0a3.68,3.68,0,0,1-3.7,3.66h0A3.68,3.68,0,0,1,0,91.39H0A3.68,3.68,0,0,1,3.7,87.73Z"/><path d="M0,442.31a3.65,3.65,0,0,1,1.08-2.59,3.75,3.75,0,0,1,2.62-1.07,4.39,4.39,0,0,1,.72.07,4.22,4.22,0,0,1,.69.21,3.28,3.28,0,0,1,.64.34,3.45,3.45,0,0,1,.56.45,3.64,3.64,0,0,1,.8,4,3.2,3.2,0,0,1-.34.63,3.05,3.05,0,0,1-.46.55,4.15,4.15,0,0,1-.56.46,3.87,3.87,0,0,1-.64.33,3.43,3.43,0,0,1-.69.21,3.53,3.53,0,0,1-.72.08,3.72,3.72,0,0,1-2.62-1.08A3.64,3.64,0,0,1,0,442.31Z"/></g></g></svg>