<svg xmlns="http://www.w3.org/2000/svg" viewBox="0 0 1142 571"><g id="Ebene_2" data-name="Ebene 2"><g id="Ebene_1-2" data-name="Ebene 1"><polygon points="316.81 0 277.42 0 571 423.68 571 423.68 673.08 571 712.48 571 571 366.82 316.81 0"/><polygon points="571 147.32 468.92 0 429.52 0 571 204.18 825.18 571 864.58 571 571 147.32 571 147.32"/><polygon points="177.53 0 138.13 0 533.8 571 571 571 571 567.84 177.53 0"/><polygon points="0 440.68 90.31 571 129.7 571 0 383.82 0 440.68"/><polygon points="0 0 0 20.16 381.69 571 421.09 571 25.43 0 0 0"/><polygon points="0 221.17 242.41 571 281.8 571 0 164.32 0 221.17"/><polygon points="571 0 571 3.16 964.47 571 1003.87 571 608.2 0 571 0"/><polygon points="1142 130.32 1051.7 0 1012.3 0 1142 187.18 1142 130.32"/><polygon points="1142 550.84 760.31 0 720.91 0 1116.58 571 1142 571 1142 550.84"/><polygon points="1142 349.83 899.59 0 860.2 0 1142 406.68 1142 349.83"/></g></g></svg>