<svg xmlns="http://www.w3.org/2000/svg" viewBox="0 0 214.29 60.19"><defs><style>.cls-1{fill:#fff;}</style></defs><g id="Ebene_2" data-name="Ebene 2"><g id="Ebene_1-2" data-name="Ebene 1"><path d="M80.79.76V20.58h7.93v5.61H74.2V.76Z"/><path d="M106.56,6.37H98.71V10.6h7.43v5.6H98.71v4.38h7.85v5.61H92.11V.76h14.45Z"/><path d="M123,11.78h13.11c0,5-1,8.61-4.07,11.43a12.42,12.42,0,0,1-9,3.21,13.12,13.12,0,0,1-9.76-3.78,12.81,12.81,0,0,1-3.66-9.18,13.25,13.25,0,0,1,3.81-9.53,14.77,14.77,0,0,1,16.74-2,12.43,12.43,0,0,1,4.53,5.22L128.4,9.72a6.11,6.11,0,0,0-1.83-2.55A5.28,5.28,0,0,0,123,5.91a6.17,6.17,0,0,0-4.35,1.75,8.61,8.61,0,0,0-2.21,5.83,7.94,7.94,0,0,0,2,5.49,6,6,0,0,0,4.65,1.95,5.44,5.44,0,0,0,3.66-1.18,4.54,4.54,0,0,0,1.57-2.82H123Z"/><path d="M154.33,21.92H145.1l-1.71,4.27h-7L146.17.76h7.2l9.57,25.43h-7.05Zm-1.76-5-2.86-8.24-2.78,8.24Z"/><path d="M176.17.76A8.21,8.21,0,0,1,182.38,3a8.38,8.38,0,0,1,2.18,5.72,7.34,7.34,0,0,1-2,5.3A7.16,7.16,0,0,1,179,15.78l8,10.41h-8.2l-6.32-9.76v9.76h-6.6V.76Zm-3.69,11.4h1.25a5,5,0,0,0,3.2-1A3.12,3.12,0,0,0,177.77,9a3,3,0,0,0-.87-2.14,4.49,4.49,0,0,0-3.17-1h-1.25Z"/><path d="M198.44,6.37V26.19h-6.6V6.37h-5.41V.76h17.42V6.37Z"/><path d="M213.38.76V26.19h-6.59V.76Z"/><path d="M88.11,51.2H77.28l-3.39,8.34H72.06L82.77,33.36,93.33,59.54H91.5Zm-.61-1.53-4.77-12-4.84,12Z"/><path d="M109.8,47.35h10.67a13.67,13.67,0,0,1-2.59,8.35A11.78,11.78,0,0,1,108.32,60,12.76,12.76,0,0,1,95.16,46.89a13,13,0,0,1,13.27-13.11,12.39,12.39,0,0,1,8,2.74,14.7,14.7,0,0,1,3,3.2l-1.33,1.07A11.43,11.43,0,0,0,96.92,47a11.22,11.22,0,0,0,11.36,11.47,10.55,10.55,0,0,0,8.84-4.31,11.41,11.41,0,0,0,1.68-5.26h-9Z"/><path d="M138.16,35.65H127.64v9.22h10.3v1.52h-10.3V58h10.52v1.52H126V34.12h12.19Z"/><path d="M143.66,59.54V33.85L165,56.19V34.12h1.68V60.19L145.33,37.86V59.54Z"/><path d="M193.9,39.31a11.26,11.26,0,0,0-8.58-4,11.57,11.57,0,0,0,0,23.14,11.83,11.83,0,0,0,8.54-3.85V56.8A12.75,12.75,0,0,1,185.44,60a13.09,13.09,0,1,1-.08-26.18,12.41,12.41,0,0,1,8.54,3.31Z"/><path d="M204,48.68l-8.35-14.56h1.91L204.92,47l7.47-12.85h1.9l-8.57,14.56V59.54H204Z"/><rect width="60" height="60"/><path class="cls-1" d="M29.85,15.21A3.54,3.54,0,0,1,27.31,17a27.68,27.68,0,0,0-3.89.54,3.88,3.88,0,0,0-1.7,1A12.75,12.75,0,0,0,20,20.93a11.06,11.06,0,0,1-1.11,1.63h0a2.86,2.86,0,0,0,.34.85,1,1,0,0,0,.81.43,0,0,0,0,0,0,0l1.43-2a0,0,0,0,0,0,0h0a1.28,1.28,0,0,1-1-1.24c0-.21.2-.51,1.14-.94s3.32-.51,4.49-.9a10.86,10.86,0,0,0,2.53-1.65,7.42,7.42,0,0,0,2.15-3,3.61,3.61,0,0,0,.06-2.4h0l-.44-.24h0v0A4.09,4.09,0,0,1,29.85,15.21Z"/><path class="cls-1" d="M18.77,26.44h0l.12-.09h0a3.8,3.8,0,0,1-.82-2.74,9.38,9.38,0,0,1,1.63-4.12,5.93,5.93,0,0,1,2.44-2.38C23,16.76,24,17,26,16.55a4.73,4.73,0,0,0,2.63-1.25h0l1.56-2s0,0,0,0H30c-.66.75-1.63,1.21-3.55,1.4a10.66,10.66,0,0,0-3.29.53c-1.21.46-2.61,2.6-2.62,2.62h0s-2.65,3.49-2.65,5.93C17.91,25.72,18.7,26.39,18.77,26.44Z"/><path class="cls-1" d="M35.47,41.56l-2.3,1.89.55,0L36,41.58Z"/><path class="cls-1" d="M42.91,37.69a4.85,4.85,0,0,1-4.31-3l-2.11,1.43a5.1,5.1,0,0,0-.87,3,2,2,0,0,0,.73,1.44s0,0,0,0h0a1.93,1.93,0,0,0,0-.24,1.8,1.8,0,0,1-.52-1.21,4.15,4.15,0,0,1,.68-2.42s0,0,0,0h0a4.22,4.22,0,0,0,3.89,2.79,0,0,0,0,1,0,0v0a4.91,4.91,0,0,1-2.7,1.9,6.18,6.18,0,0,1-.85.11l-2.33,1.92A8,8,0,0,0,36.9,43a7.69,7.69,0,0,0,2.91-2.06l3.11-3.24s0,0,0,0Z"/><path class="cls-1" d="M34.68,41.5a17.15,17.15,0,0,1-2.8-.48V37.84h0c.14,0,.28-.11.27-.13a.16.16,0,0,1,0-.15.25.25,0,0,1,.13-.14.27.27,0,0,0,.11-.18c0-.06-.07-.06,0-.15s.21-.09.35-.11.08-.1.08-.1a.1.1,0,0,1,0-.17c.09-.11.36-.09.46-.07l0,0h0a.65.65,0,0,0-.24-.19c-.16-.07-.26-.09-.19-.19s.24,0,.43.08a.53.53,0,0,0,.37,0l0-.09s-.12,0-.07-.15.11-.11.35-.06a.49.49,0,0,0,.32,0s0,0,0,0h0a.15.15,0,0,1-.06-.15c.05-.25.31,0,.55,0a1,1,0,0,0,.46-.11s0,0,0,0h0a2.64,2.64,0,0,1-2.67-2.38h0l-.48.64a0,0,0,0,1,0,0h0V20.16a0,0,0,0,1,0,0h0a5.76,5.76,0,0,0,.52.7,4,4,0,0,1,.69,2.41,3,3,0,0,1-.36,1.46,2.57,2.57,0,0,0-.29,1c0,.19.08.2.08.13a2.71,2.71,0,0,1,.34-.64c.14-.22.14-.2.29-.84a16.44,16.44,0,0,0,.21-2,9.1,9.1,0,0,0-.12-2.88,5.15,5.15,0,0,0-.84-1.63,5.44,5.44,0,0,1-.56-1.76v-.24h-.21a0,0,0,0,0,0,0h0V34.19L30.3,36v0c.37,1.53,1.09,1.89,1.33,1.9l0,0v3s0,0,0,0h0c-1.37-.41-3-1-4.66-1.44a12,12,0,0,0-3.06-.26h0c3-2.07,5.72-4.65,5.14-8.11-.66-3.92-1.49-4.89-1.86-7.09-.55-3.29,2.37-6,2.55-6.2a8.75,8.75,0,0,1,1.07-.47l-.05-.12h0L24.07,20h0a6.19,6.19,0,0,0-2.91,5.66,11.35,11.35,0,0,0,.9,3.59h0l2.38-1.35h0a15.38,15.38,0,0,1-.87-3.82c0-1.88,1-3.9,2.11-4.55h0L27,18.91s0,0,0,0v0c-.47.44-3,3-2.1,6.06a50.89,50.89,0,0,1,1.82,7.29c.23,2.12-.66,3.71-3.17,6.37,0,0,0,0,0,0s0,0,0,0c.43-.68,2.37-2.9,2.18-5.4a20.69,20.69,0,0,0-.82-3.94h0L22.6,30.58h0a7.31,7.31,0,0,1,.61,4.65,17,17,0,0,1-2.73,4.92c-.86,1.09-2.16,2.08-2.79,2.87a2.88,2.88,0,0,0-.49,2.65c.58,2.15,3.39,2.49,4,2.54a5.48,5.48,0,0,0,5.81-2.84,0,0,0,0,0,0,0h0a1.82,1.82,0,0,0-.3.13A5.29,5.29,0,0,1,21.28,48c-.62-.05-3.31-.47-3.84-2.37a3.18,3.18,0,0,1,1.5-3.56A7.29,7.29,0,0,1,23.42,41c2.56.26,5.95,1.88,8.21,2.25v5.26l0,0h.2s0,0,0,0V43.3H32l.45,0h0l2.26-1.86Z"/><path class="cls-1" d="M24.61,28.42l-2.35,1.32.14.35,2.32-1.31C24.68,28.67,24.65,28.55,24.61,28.42Z"/></g></g></svg>