<svg id="final_Kopie_Kopie" data-name="final Kopie Kopie" xmlns="http://www.w3.org/2000/svg" viewBox="0 0 410.28 589.01"><defs><style>.cls-1{fill:#fff;}</style></defs><title>logoWhite</title><path class="cls-1" d="M202.66,62.88c-11.46,18-23.11,23.93-40.25,27.7-12.52,2.75-41.76,1.69-61.68,8.56-14.6,5-21.59,10.42-27,16.12-8.08,8.48-16.47,20.39-27,38.27-11.06,18.72-17,25.34-17.48,25.91a.09.09,0,0,0,0,.1,41.07,41.07,0,0,0,5.34,13.62c3.86,6.22,11.49,6.68,12.91,6.71a.44.44,0,0,0,.36-.19L70.44,168.1a.21.21,0,0,0-.06-.28l0,0c-14.2-3.65-15.61-16.54-15.61-19.84s3.09-8.06,18-14.93,52.67-8.11,71.34-14.22c13-4.27,28.23-17.29,40.05-26.31,16.43-12.53,28.2-32.35,34.13-47.28s3.92-26.61,1.09-38a.2.2,0,0,0-.1-.12l-6.91-3.95a.18.18,0,0,0-.25.09.16.16,0,0,0,0,.15C222.62,28.72,209,52.91,202.66,62.88Z" transform="translate(0 -3.13)"/><path class="cls-1" d="M27,241.05a.15.15,0,0,0,.16,0L29,239.78a.14.14,0,0,0,0-.2h0c-1.33-1.49-14.73-17.14-12.93-43.49,1.9-27.73,16.83-50,25.84-65.42S66.14,98.9,80.6,93c13.14-5.39,28.64-1.69,61.62-8.77,21-4.51,34.12-11.19,41.71-19.91h0l24.81-31.83a.24.24,0,0,0,0-.34.25.25,0,0,0-.15,0h-3a.4.4,0,0,0-.29.12C194.72,44,179.32,51.27,148.86,54.34s-36.2,2.43-52.15,8.54c-19.16,7.33-41.39,41.34-41.47,41.47h0c-.13.17-42,55.4-42,94.1C13.26,229.58,25.87,240.19,27,241.05Z" transform="translate(0 -3.13)"/><path class="cls-1" d="M292,481l-36.51,30q4.54.33,8.71.48l36.72-30.21C298,481.21,295,481.11,292,481Z" transform="translate(0 -3.13)"/><path class="cls-1" d="M410,419.61c-33.33-2.68-60.55-22.6-68.45-47l-33.54,22.68c-5.72,5.95-15,29.32-13.8,47.34.59,8.89,4.49,16.6,11.58,22.95a.23.23,0,0,0,.39-.17,25.29,25.29,0,0,0-.23-3.79c-4.26-5.12-7.69-9.27-8.21-19.16-.78-15,5.42-31.58,10.7-38.53a.25.25,0,0,1,.34-.06.29.29,0,0,1,.09.15c6.57,24.68,36.35,45.15,61.73,44.27a.5.5,0,0,1,.41.8c-14.33,18.27-29.73,27.39-42.78,30.17A93,93,0,0,1,314.76,481l-37,30.47a121.56,121.56,0,0,0,36.79-7.5c24.64-8.77,39.29-25.85,46.21-32.71,5.09-5.05,45-46.68,49.44-51.26a.22.22,0,0,0,0-.31A.2.2,0,0,0,410,419.61Z" transform="translate(0 -3.13)"/><path class="cls-1" d="M279.52,480.06c-16.77-1.55-33.31-4.4-44.49-7.6l-.18-.25V422.07l.16-.23c2.2-.85,4.55-1.71,4.27-2.1a2.86,2.86,0,0,1-.44-2.27A4.13,4.13,0,0,1,241,415.2a3.66,3.66,0,0,0,1.57-2.78c.09-1-1.14-.95-.52-2.38.77-1.8,3.32-1.4,5.46-1.66s1.26-1.66,1.26-1.66-2.49-.65-.69-2.71c1.43-1.64,5.67-1.3,7.3-1.09a.25.25,0,0,0,.23-.41,10,10,0,0,0-3.82-3c-2.63-1.15-4.1-1.39-3.1-3.14,1.16-2.07,3.89.74,6.9,1.39a9.56,9.56,0,0,0,5.82-.76l-.18-1.48s-2-.28-1.09-2.41c.53-1.27,1.61-1.74,5.55-.92,2.87.61,4.39.07,5-.24a.24.24,0,0,0,.11-.31l-.06-.07a2.53,2.53,0,0,1-.92-2.49c.81-3.86,5-.69,8.78-.73A17.63,17.63,0,0,0,286,386.6a.23.23,0,0,0-.09-.43c-38.51-4.26-42-32.86-42.33-37.75a.26.26,0,0,0-.47-.13l-7.7,10.3a.26.26,0,0,1-.37,0,.24.24,0,0,1-.09-.18V141.65a.25.25,0,0,1,.27-.25.27.27,0,0,1,.21.12,98.89,98.89,0,0,0,8.39,11.24c10.29,12.4,10.87,31.1,10.91,38.22.05,8.89-2.56,17.72-5.76,23.23s-4.44,13.39-4.62,16.41,1.42,3.2,1.42,2.13,3-6.57,5.34-10.13,2.31-3.2,4.62-13.33.9-8.95,3.38-32c2.84-26.48-2-45.68-2-45.68-1.42-6.76-3.29-9.16-13.35-25.78-4.51-7.45-8.14-21.24-8.82-28-.1-1,0-3.74,0-3.74a.23.23,0,0,0-.23-.23h-3.24a.26.26,0,0,0-.26.26h0v290l-.05.16-21.34,28.55,0,.22c5.84,24.26,17.31,30,21.08,30.32a.38.38,0,0,1,.36.38V471a.23.23,0,0,1-.23.23h-.08c-21.66-6.51-47.71-16.46-74-22.86-6.69-1.62-30.94-5.72-48.45-4.06a.27.27,0,0,1-.28-.24.28.28,0,0,1,.11-.23c46.88-32.84,90.92-73.71,81.68-128.59-10.47-62.18-23.78-77.7-29.63-112.54-8.77-52.26,37.64-95.8,40.53-98.36,1.92-1.69,15.64-7.13,16.91-7.63L217,94.88h0L111,138.71h0c-39.57,22.52-47.36,66.8-46.2,89.82,1,20.37,7.37,39,14.41,56.89h0L117,264.14h0c-7.5-24.61-14.18-46.79-13.91-60.72.6-29.85,16.2-61.82,33.51-72.16h0L157.1,122a.25.25,0,0,1,.34.13.28.28,0,0,1-.05.29c-7.46,7-47.11,47.3-33.4,96.16,13.11,46.69,25.28,83.19,28.9,115.7,3.73,33.61-10.46,58.94-50.29,101.12a.26.26,0,0,1-.37,0,.28.28,0,0,1,0-.28c7-10.83,37.58-46.08,34.58-85.65-1.44-19-6.66-41.05-12.93-62.59h0l-36,20.26h0c9.3,24,16.38,47.58,9.56,73.76-7.53,28.93-34.76,67.35-43.35,78.22C40.46,476.3,19.79,492,9.76,504.6S-2,531.6,2,546.55c9.24,34.07,53.74,39.54,64,40.38,39.45,3.23,68.9-6.68,92.28-45.16a.24.24,0,0,0-.09-.33.24.24,0,0,0-.19,0s-4.48,1.66-4.77,2.14c-28.2,46.86-74.41,40.86-86.53,39.84-9.81-.84-52.61-7.4-60.95-37.6-6.59-23.89,4.55-42.43,23.82-56.53,22.16-16.2,55.82-18.13,71.21-16.59,40.55,4.06,94.42,29.75,130.18,35.73a.24.24,0,0,1,.21.25v83.22a.26.26,0,0,0,.26.26h3.19a.29.29,0,0,0,.28-.28V509l1.46.19c2.41.28,4.72.53,7,.76h0l36.23-29.81S279.54,480.06,279.52,480.06Z" transform="translate(0 -3.13)"/><path class="cls-1" d="M119.59,272.57,82.34,293.51,84.56,299l36.77-20.67Q120.45,275.45,119.59,272.57Z" transform="translate(0 -3.13)"/></svg>