<svg xmlns="http://www.w3.org/2000/svg" viewBox="0 0 989.84 149.81"><g id="Ebene_2" data-name="Ebene 2"><g id="cem"><path d="M118.68,176.29c-14.92,5.4-23.13,7.13-32.43,7.13-25.07,0-43.88-9.94-55.77-21.62A75.64,75.64,0,0,1,8.65,109.27,77.19,77.19,0,0,1,30.48,56.1,76.49,76.49,0,0,1,85,33.61c6.91,0,18.15,1.09,33.72,7.35V85.71C106.57,70.8,92.3,69.93,86,69.93c-10.81,0-19,3.24-25.94,9.51a40.26,40.26,0,0,0-12.54,29.62c0,9.94,4.11,21,11.67,28.1C65.5,143,75.44,147.1,86,147.1c5.62,0,19.45-.64,32.64-15.13Z" transform="translate(-8.65 -33.61)"/><path d="M224.38,67.77H179.85v24H222v31.78H179.85V148.4h44.53v31.78H142.46V36h81.92Z" transform="translate(-8.65 -33.61)"/><path d="M241.68,180.18,266.11,36h37l29.18,77,30.92-77h37.39l21.62,144.19h-37.4l-10.59-83-34.8,83H324.47l-33.29-83-12.32,83Z" transform="translate(-8.65 -33.61)"/><path d="M528.54,67.77H483.36v24h41.07v31.78H483.36v56.64H446V36h82.58Z" transform="translate(-8.65 -33.61)"/><path d="M632.73,67.77H588.2v24h42.15v31.78H588.2V148.4h44.53v31.78H550.8V36h81.93Z" transform="translate(-8.65 -33.61)"/><path d="M693.9,36V148.4h45v31.78H656.51V36Z" transform="translate(-8.65 -33.61)"/><path d="M840,67.77H795.5v24h42.16v31.78H795.5V148.4H840v31.78H758.1V36H840Z" transform="translate(-8.65 -33.61)"/><path d="M901.21,95.44,947,36H993.3L936,104.3l62.48,75.88H950.07l-48.86-62.47v62.47h-37.4V36h37.4Z" transform="translate(-8.65 -33.61)"/></g></g></svg>